<?xml version="1.0" encoding="utf-8"?>
<!-- Svg Vector Icons : http://www.onlinewebfonts.com/icon -->
<!DOCTYPE svg PUBLIC "-//W3C//DTD SVG 1.1//EN" "http://www.w3.org/Graphics/SVG/1.1/DTD/svg11.dtd">
<svg version="1.1" xmlns="http://www.w3.org/2000/svg" xmlns:xlink="http://www.w3.org/1999/xlink" x="0px" y="0px" viewBox="0 0 1000 1000" enable-background="new 0 0 1000 1000" xml:space="preserve">
<metadata> Svg Vector Icons : http://www.onlinewebfonts.com/icon </metadata>
<g><path d="M632.7,142.7c-100.3,0-190.9,41.5-255.8,108.2c-19.6-4-39.9-6.1-60.6-6.1C147.1,244.8,10,381.9,10,551c0,169.2,137.1,306.3,306.3,306.3h316.5C830,857.3,990,697.3,990,500C990,302.7,830,142.7,632.7,142.7z M316.3,792.4c-64.5,0-125.1-25.1-170.7-70.7C100,676.1,74.9,615.5,74.9,551S100,426,145.6,380.4c45.6-45.6,106.2-70.7,170.6-70.7c64.5,0,125.1,25.1,170.7,70.7l95.7,95.7c13.9,13.9,13.9,36.5,0,50.5c-14,14-36.6,13.9-50.5,0l-95.7-95.8c-64.2-64.1-176-64.1-240.3,0C164,463,146.4,505.7,146.4,551c0,45.4,17.7,88,49.8,120.2c40.1,40,98.7,55,152.7,45.1c16.5,21.6,35.2,41.6,56.1,59C377,786.3,347.1,792.4,316.3,792.4z M841.4,708.7c-55.8,55.7-129.9,86.5-208.7,86.5c-78.9,0-153-30.7-208.8-86.5L285.7,570.4c-13.9-13.9-13.9-36.6,0-50.5c13.9-13.9,36.6-13.9,50.5,0l138.3,138.3c42.3,42.3,98.5,65.5,158.2,65.5s115.9-23.3,158.2-65.5c42.3-42.3,65.5-98.5,65.5-158.2c0-59.7-23.3-115.9-65.5-158.2c-42.3-42.3-98.4-65.5-158.2-65.5c-44.6,0-87.1,13-123.4,37.1c-19.4-15.8-40.9-29-63.9-39.8c52.8-43.8,117.9-68.9,187.3-68.9c78.8,0,152.9,30.7,208.7,86.5c55.8,55.8,86.5,129.9,86.5,208.7C927.9,578.8,897.2,653,841.4,708.7z"/></g>
</svg>
